<?xml version="1.0" standalone="no"?>
<!DOCTYPE svg PUBLIC "-//W3C//DTD SVG 20010904//EN"
 "http://www.w3.org/TR/2001/REC-SVG-20010904/DTD/svg10.dtd">
<svg version="1.0" xmlns="http://www.w3.org/2000/svg"
 width="587.000000pt" height="587.000000pt" viewBox="0 0 587.000000 587.000000"
 preserveAspectRatio="xMidYMid meet">
<metadata>
Created by potrace 1.11, written by Peter Selinger 2001-2013
</metadata>
<g transform="translate(0.000000,587.000000) scale(0.100000,-0.100000)"
fill="#000000" stroke="none">
<path d="M2596 5854 c-893 -115 -1674 -709 -2029 -1545 -89 -210 -153 -449
-182 -679 -20 -163 -20 -477 0 -640 143 -1158 1067 -2082 2225 -2225 73 -9
205 -15 320 -15 369 0 683 62 999 197 185 79 249 115 491 276 129 86 345 285
470 432 317 373 525 848 585 1335 20 163 20 477 0 640 -88 713 -476 1358
-1070 1778 -55 39 -104 75 -110 80 -23 19 -274 146 -369 186 -205 88 -447 152
-676 181 -155 19 -502 18 -654 -1z m754 -94 c112 -20 310 -71 383 -99 l27 -11
-2 -2342 -3 -2342 -85 -27 c-230 -73 -472 -109 -736 -109 -300 0 -510 32 -774
120 -382 125 -704 323 -985 605 -397 397 -655 930 -714 1477 -14 125 -14 431
0 556 35 329 157 691 328 982 357 603 961 1035 1641 1174 193 39 265 45 540
42 210 -3 277 -7 380 -26z m626 -196 l74 -33 0 -2221 0 -2221 -74 -33 c-41
-19 -84 -37 -95 -41 l-21 -6 0 2301 0 2301 21 -6 c11 -4 54 -22 95 -41z m455
-275 c396 -300 698 -721 854 -1194 88 -265 125 -496 125 -785 0 -289 -37 -520
-125 -785 -156 -473 -458 -894 -854 -1194 -42 -31 -82 -61 -88 -65 -10 -6 -13
406 -13 2044 0 1638 3 2050 13 2044 6 -4 46 -34 88 -65z"/>
<path d="M1170 4694 l0 -304 130 0 130 0 0 -1416 0 -1415 633 3 632 4 100 27
c119 32 295 116 385 185 230 174 386 429 429 702 7 41 11 340 11 801 0 625 -2
749 -16 819 -92 487 -523 867 -1004 886 -58 2 -403 6 -767 8 l-663 4 0 -304z
m1501 -322 c131 -43 240 -136 299 -256 58 -118 60 -140 60 -831 0 -381 -4
-655 -10 -693 -31 -188 -146 -331 -327 -403 -55 -23 -71 -24 -360 -27 l-303
-3 0 1121 0 1122 288 -4 c258 -5 294 -7 353 -26z"/>
</g>
</svg>
